<?xml version="1.0" encoding="utf-8"?>
<svg width="27px" height="25px" viewBox="0 0 27 25" version="1.1" xmlns:xlink="http://www.w3.org/1999/xlink" xmlns="http://www.w3.org/2000/svg">
  <desc>Created with Lunacy</desc>
  <g id="buy-(1)">
    <path d="M25.8906 4.55174L4.77996 4.55174L4.46616 1.02007C4.41483 0.442532 3.93571 0 3.36175 0L1.10884 0C0.496445 0 0 0.501529 0 1.1202C0 1.73887 0.496445 2.2404 1.10884 2.2404L2.348 2.2404C2.47394 3.65788 2.51593 4.13037 2.51593 4.13037C2.51594 4.13037 2.45938 3.49367 2.41191 2.95937L2.41192 2.95937C2.53613 4.3574 2.86737 8.0856 3.62333 16.5944C3.71383 17.6289 4.26715 18.7515 5.22033 19.5143C3.50178 21.7314 5.07201 25 7.86751 25C10.1877 25 11.8242 22.6622 11.0286 20.448L17.0974 20.448C16.3027 22.6594 17.9357 25 20.2585 25C22.1121 25 23.6202 23.4765 23.6202 21.6038C23.6202 19.7312 22.1121 18.2077 20.2585 18.2077L7.875 18.2077C7.03271 18.2077 6.2987 17.6943 5.98189 16.9463L23.7027 15.8942C24.1865 15.8655 24.5958 15.5226 24.7134 15.0476L26.9664 5.94361C27.1411 5.23767 26.6121 4.55174 25.8906 4.55174ZM2.41041 2.94245C2.37674 2.56347 2.34804 2.24041 2.34804 2.24041C2.34804 2.24041 2.36518 2.43333 2.41041 2.94245ZM5.6834 14.7197L22.7594 13.7059L24.4705 6.79208L4.97902 6.79208L5.6834 14.7197ZM6.7235 21.6038C6.7235 22.2411 7.23673 22.7596 7.86751 22.7596C8.49833 22.7596 9.01157 22.2411 9.01157 21.6038C9.01157 20.9665 8.49833 20.448 7.86751 20.448C7.23673 20.448 6.7235 20.9665 6.7235 21.6038ZM20.2584 22.7596C19.6276 22.7596 19.1143 22.2411 19.1143 21.6038C19.1143 20.9665 19.6276 20.448 20.2584 20.448C20.8892 20.448 21.4025 20.9665 21.4025 21.6038C21.4025 22.2411 20.8892 22.7596 20.2584 22.7596Z" id="Shape" fill="#FFFFFF" fill-rule="evenodd" stroke="none" />
  </g>
</svg>