<?xml version="1.0" encoding="utf-8"?>
<svg width="50px" height="50px" viewBox="0 0 50 50" version="1.1" xmlns:xlink="http://www.w3.org/1999/xlink" xmlns="http://www.w3.org/2000/svg">
  <desc>Created with Lunacy</desc>
  <g id="Page-1">
    <g id="Group-3">
      <path d="M12.3903 3.39769C12.3903 3.48594 12.3903 3.54794 12.3903 3.60994C12.3903 10.4264 12.3886 17.2432 12.3931 24.0597C12.3936 24.7542 12.4063 25.4504 12.4588 26.1424C12.5518 27.3664 12.8538 28.5457 13.3256 29.6789C14.4671 32.4207 16.3456 34.5079 18.9388 35.9484C20.1228 36.6062 21.3908 37.0402 22.7236 37.2812C23.6786 37.4539 24.6426 37.5117 25.6103 37.4569C27.8253 37.3314 29.8748 36.6794 31.7351 35.4662C34.1556 33.8874 35.8443 31.7279 36.7998 29.0002C37.1608 27.9699 37.3713 26.9072 37.4433 25.8172C37.6198 23.1487 37.0298 20.6622 35.6291 18.3839C34.1616 15.9969 32.1108 14.2889 29.5068 13.2509C28.5046 12.8514 27.4648 12.5957 26.3923 12.4772C23.4423 12.1517 20.7098 12.7769 18.1961 14.3559C18.1691 14.3729 18.1398 14.3867 18.0981 14.4092C18.0956 14.3524 18.0918 14.3087 18.0918 14.2649C18.0916 9.87744 18.0921 5.48994 18.0886 1.10244C18.0886 0.988188 18.1256 0.945188 18.2298 0.916438C19.3546 0.606938 20.4946 0.372188 21.6503 0.216438C23.0571 0.0266875 24.4711 -0.0335625 25.8888 0.0171875C27.0298 0.0579375 28.1631 0.180438 29.2886 0.379188C32.1566 0.885188 34.8581 1.85619 37.3731 3.32219C41.9023 5.96169 45.2916 9.65619 47.5338 14.3972C48.4566 16.3484 49.0941 18.3922 49.4766 20.5154C49.7943 22.2804 49.9183 24.0607 49.8488 25.8514C49.6846 30.0984 48.5233 34.0547 46.3458 37.7072C44.9078 40.1189 43.1071 42.2247 40.9573 44.0314C39.0406 45.6419 36.9283 46.9337 34.6236 47.9102C33.0948 48.5579 31.5153 49.0437 29.8883 49.3729C27.9741 49.7602 26.0388 49.9247 24.0883 49.8457C23.2451 49.8117 22.4013 49.7332 21.5636 49.6287C19.3716 49.3552 17.2618 48.7639 15.2288 47.9027C12.6646 46.8162 10.3446 45.3419 8.27557 43.4777C5.56857 41.0387 3.48507 38.1489 2.03607 34.8039C1.24732 32.9824 0.691572 31.0922 0.356822 29.1354C0.0685717 27.4502 -0.0504283 25.7524 0.0195717 24.0462C0.257322 18.2554 2.25182 13.1427 5.99982 8.72294C7.78807 6.61444 9.88932 4.86919 12.2691 3.46069C12.3001 3.44244 12.3331 3.42719 12.3903 3.39769" transform="translate(-9.672635E-05 0.1350125)" id="Fill-1" fill="#FFC700" stroke="none" />
    </g>
    <path d="M7.59275 15.1925C3.4015 15.1912 -0.00449555 11.7832 4.45391e-06 7.58922C0.00450445 3.36547 3.44975 -0.0570297 7.70425 0.000720249C11.829 0.0567202 15.1925 3.41272 15.1908 7.60722C15.189 11.792 11.779 15.1937 7.59275 15.1925" transform="translate(17.33915 17.47165)" id="Fill-4" fill="#FFC700" stroke="none" />
  </g>
</svg>