<?xml version="1.0" encoding="utf-8"?>
<svg width="25px" height="25px" viewBox="0 0 25 25" version="1.1" xmlns:xlink="http://www.w3.org/1999/xlink" xmlns="http://www.w3.org/2000/svg">
  <desc>Created with Lunacy</desc>
  <defs>
    <path d="M0 0L24.9957 0L24.9957 24.9973L0 24.9973" transform="translate(0 0.002685185)" id="path_1" />
    <clipPath id="mask_1">
      <use xlink:href="#path_1" />
    </clipPath>
  </defs>
  <g id="Page-1">
    <path d="M0 0L24.9957 0L24.9957 24.9973L0 24.9973" transform="translate(0 0.002685185)" id="Clip-2" fill="none" stroke="none" />
    <g clip-path="url(#mask_1)">
      <path d="M2.15923 16.1977C5.27368 20.1388 11.1628 21.3754 15.7954 18.1439C16.3053 18.6542 16.8064 19.1562 17.3078 19.6578C18.9063 21.2563 20.5053 22.8544 22.1033 24.4534C22.5861 24.9366 23.1569 25.117 23.8161 24.917C25.0389 24.546 25.3965 23.042 24.4818 22.1251C22.433 20.0712 20.3799 18.0216 18.3288 15.9701C18.2697 15.911 18.2132 15.8494 18.1575 15.791C21.422 11.186 20.1506 5.0785 15.9729 1.97877C11.9509 -1.00539 6.30044 -0.572524 2.8596 2.99498C-0.67336 6.65794 -0.962804 12.2468 2.15923 16.1977ZM16.6652 10.0722C16.6604 13.6854 13.6445 16.6623 9.99016 16.661C6.31433 16.6597 3.33053 13.6685 3.33192 9.98618C3.3334 6.30044 6.32636 3.32525 10.0303 3.32766C13.7128 3.33007 16.6702 6.33627 16.6652 10.0722Z" transform="translate(-1.062332E-05 0.002644124)" id="Fill-1" fill="#FFFFFF" fill-rule="evenodd" stroke="none" />
    </g>
  </g>
</svg>